OpenSim_Sub06_EMGStiffKnee_GRF.mot
version=1
nRows=51
nColumns=19
inDegrees=no
endheader
time	lFx	lFy	lFz	lCOPx	lCOPy	lCOPz	rFx	rFy	rFz	rCOPx	rCOPy	rCOPz	lMx	lMy	lMz	rMx	rMy	rMz
27.16000000	-76.04722534	555.40948074	96.82904313	1.18369962	0	-0.66376014	34.78421095	168.77709852	-11.37570424	0.90451250	0	-0.31846989	0	-8.05479024	0	0	1.78634664	-0.00000000
27.17000000	-69.11661009	523.86203448	95.57461786	1.18194614	0	-0.66582512	26.03064730	124.99974855	-7.50672678	0.90418269	0	-0.31951963	0	-8.77411638	0	0	1.40630866	0.00000000
27.18000000	-64.40737481	501.82788592	92.73351288	1.18056727	0	-0.66722956	17.65673339	87.97976032	-5.21683538	0.86545764	0	-0.30640432	0	-8.89246224	0	0	0.94010758	0.00000000
27.19000000	-61.12526537	489.68770945	88.31192673	1.17867240	0	-0.66788879	10.20440472	59.17405427	-3.72457005	0.74451177	0	-0.26336753	0	-8.47791489	0	0	0.50475601	0
27.20000000	-58.43291516	487.25563151	83.06274331	1.17598825	0	-0.66796028	4.12514606	38.73723864	-2.79291611	0.51444606	0	-0.18126698	0	-7.67532685	0	0	0.19893316	-0.00000000
27.21000000	-55.85435119	493.71161730	77.89787593	1.17229332	0	-0.66766726	-0.51056351	25.47962777	-2.24210917	0.24743839	0	-0.08619313	0	-6.63660244	0	0	0.03480314	0.00000000
27.22000000	-53.01854604	507.03683204	73.55634553	1.16766134	0	-0.66726420	-3.70576552	17.42463482	-1.91804024	0.06466309	0	-0.02194290	0	-5.55974867	0	0	-0.02414803	0.00000000
27.23000000	-49.90620294	524.35355617	70.68007281	1.16254948	0	-0.66697898	-5.38512760	12.45265697	-1.59966243	-0.01309188	0	0.00502990	0	-4.68788661	0	0	-0.02865824	-0.00000000
27.24000000	-46.87243763	543.27092287	69.61271675	1.15717976	0	-0.66692220	-5.27845441	8.62607085	-1.20107096	-0.02761409	0	0.00984437	0	-4.12902003	0	0	-0.01674989	-0.00000000
27.25000000	-44.33748490	562.75347434	70.33290664	1.15161038	0	-0.66710993	-3.48639861	4.98584860	-0.60627062	-0.01882333	0	0.00661484	0	-3.89210190	0	0	-0.00595414	0.00000000
27.26000000	-42.30923406	582.59248962	72.55701598	1.14582116	0	-0.66746331	-1.45885709	2.13004203	0.02502949	-0.00790212	0	0.00273994	0	-3.93772795	0	0	-0.00038582	0.00000000
27.27000000	-40.54118863	602.56809088	75.67649815	1.13988114	0	-0.66790930	-0.25057898	0.61743307	0.22171839	-0.00141043	0	0.00046580	0	-4.16339966	0	0	0.00125899	0.00000000
27.28000000	-38.80790363	621.99752023	79.03430231	1.13383814	0	-0.66840500	0.18474805	0.20864548	0.25509964	0.00094618	0	-0.00034683	0	-4.50368735	0	0	0.00111736	0.00000000
27.29000000	-36.98110386	639.86764147	82.24055659	1.12781943	0	-0.66888668	0.19641985	0.34542124	0.30301858	0.00113523	0	-0.00040262	0	-4.87595126	0	0	0.00056934	-0.00000000
27.30000000	-35.13315772	654.98410701	84.86391377	1.12207638	0	-0.66934627	0.09681911	0.57231322	0.23020099	0.00066625	0	-0.00023332	0	-5.19871148	0	0	0.00016461	0.00000000
27.31000000	-33.34266211	666.33903172	86.63405269	1.11662299	0	-0.66979023	0.00474490	0.66129784	0.19129349	0.00023807	0	-0.00008204	0	-5.45908994	0	0	-0.00001736	-0.00000000
27.32000000	-31.65433173	673.52156916	87.51296038	1.11130175	0	-0.67022024	-0.02822255	0.59006177	0.19890256	0.00001635	0	-0.00000465	0	-5.69737612	0	0	-0.00005742	0.00000000
27.33000000	-30.04309049	676.53624162	87.56539508	1.10592351	0	-0.67063064	-0.03005881	0.46871384	0.16512938	-0.00004959	0	0.00001788	0	-5.87648419	0	0	-0.00004174	-0.00000000
27.34000000	-28.53096505	675.83993955	87.09861053	1.10059841	0	-0.67102137	-0.05215181	0.43139804	0.14717532	-0.00004432	0	0.00001565	0	-5.99014404	0	0	-0.00001853	0.00000000
27.35000000	-27.11251073	672.19131966	86.40923349	1.09545174	0	-0.67142526	-0.08275636	0.49991190	0.13434377	-0.00002268	0	0.00000791	0	-6.09767573	0	0	-0.00000394	0.00000000
27.36000000	-25.62630456	666.40378174	85.54896714	1.09044713	0	-0.67187175	-0.08396922	0.60945227	0.10602764	-0.00000664	0	0.00000226	0	-6.17117889	0	0	0.00000171	0.00000000
27.37000000	-24.04742608	659.25929414	84.60100864	1.08544537	0	-0.67236197	-0.04811879	0.67975355	0.12588799	0.00000056	0	-0.00000024	0	-6.24797029	0	0	0.00000244	-0.00000000
27.38000000	-22.50482199	651.52369533	83.67740849	1.08054973	0	-0.67286891	0.00053031	0.66184800	0.16250756	0.00000212	0	-0.00000077	0	-6.37130009	0	0	0.00000156	0.00000000
27.39000000	-21.17385826	643.82210281	82.75985185	1.07578848	0	-0.67336416	0.02769712	0.61176874	0.15741931	0.00000157	0	-0.00000056	0	-6.47292990	0	0	0.00000066	0.00000000
27.40000000	-19.95387542	636.75531374	81.96784792	1.07085354	0	-0.67382196	0.04333929	0.63931797	0.20876234	0.00000103	0	-0.00000034	0	-6.53251161	0	0	0.00000011	0.00000000
27.41000000	-18.60763252	631.01538243	81.36111546	1.06542699	0	-0.67420722	0.04737318	0.71406594	0.28942634	0.00000137	0	-0.00000040	0	-6.57123254	0	0	-0.00000031	-0.00000000
27.42000000	-16.95316601	627.10086941	80.75443242	1.05943929	0	-0.67451337	0.03207162	0.74190024	0.28765422	0.00000252	0	-0.00000072	0	-6.58010320	0	0	-0.00000089	-0.00000000
27.43000000	-14.98140463	625.16137350	80.14451910	1.05315227	0	-0.67473506	-0.00630553	0.72901576	0.23596927	0.00000325	0	-0.00000094	0	-6.60403266	0	0	-0.00000169	-0.00000000
27.44000000	-12.77009905	625.02310838	79.56988812	1.04668910	0	-0.67483596	-0.05280020	0.75163121	0.20295062	0.00000035	0	-0.00000011	0	-6.62572611	0	0	-0.00000201	-0.00000000
27.45000000	-10.30345607	626.19280613	78.95977075	1.04013429	0	-0.67482546	-0.07191952	0.77123287	0.20066441	-0.00001145	0	0.00000329	0	-6.59051924	0	0	0.00000011	-0.00000000
27.46000000	-7.59213564	628.13003044	78.34790824	1.03360405	0	-0.67477817	-0.08304408	0.72014869	0.23751046	-0.00003650	0	0.00001054	0	-6.55505972	0	0	0.00000790	0.00000000
27.47000000	-4.64329307	630.40912503	77.77590051	1.02719958	0	-0.67475414	-0.11092294	0.64106971	0.26797597	-0.00006830	0	0.00001980	0	-6.57754465	0	0	0.00002373	0.00000000
27.48000000	-1.57732310	632.91242453	77.38510163	1.02097724	0	-0.67477848	-0.12644220	0.63755307	0.23174220	-0.00007053	0	0.00002060	0	-6.67441268	0	0	0.00004265	0.00000000
27.49000000	1.46870159	635.72540353	77.31044590	1.01470243	0	-0.67483222	-0.12024453	0.69930517	0.15589419	0.00004324	0	-0.00001206	0	-6.84846757	0	0	0.00004048	-0.00000000
27.50000000	4.52426636	638.70729816	77.57526750	1.00816948	0	-0.67488641	-0.10540076	0.77929232	0.10110178	0.00039971	0	-0.00011499	0	-7.08739155	0	0	-0.00003790	-0.00000000
27.51000000	7.69120151	641.50352066	78.15437259	1.00131160	0	-0.67492004	-0.09562685	0.92720916	0.06092576	0.00105872	0	-0.00030602	0	-7.37341406	0	0	-0.00026942	-0.00000000
27.52000000	10.97748889	643.64761035	79.00590705	0.99435073	0	-0.67494233	-0.08636101	1.09276183	0.01386296	0.00172281	0	-0.00050004	0	-7.69432021	0	0	-0.00068041	-0.00000000
27.53000000	14.31387475	644.65483129	79.97429393	0.98760165	0	-0.67498842	-0.05409121	1.13621837	-0.05327267	0.00125531	0	-0.00036917	0	-8.01224801	0	0	-0.00105969	-0.00000000
27.54000000	17.75181234	644.10392389	80.78623184	0.98114613	0	-0.67509167	0.01938968	0.83883717	-0.10670264	-0.00269289	0	0.00076686	0	-8.27599995	0	0	-0.00066140	-0.00000000
27.55000000	21.36399873	641.70743010	81.33336715	0.97481600	0	-0.67522810	0.14420563	-0.39091003	-0.14157005	-0.01299715	0	0.00374557	0	-8.51349118	0	0	0.00199507	-0.00000000
27.56000000	25.06375554	637.46337088	81.59378698	0.96849779	0	-0.67532565	0.23882144	-3.05303257	-0.19055902	-0.02954540	0	0.00854935	0	-8.73425866	0	0	0.00861060	0.00000000
27.57000000	28.60748313	631.60869653	81.54092997	0.96232932	0	-0.67536510	0.12147432	-6.62506559	-0.07834597	-0.04109166	0	0.01194854	0	-8.93685323	0	0	0.01877358	0.00000000
27.58000000	31.88705053	624.28511530	81.22577316	0.95634731	0	-0.67538293	-0.54203405	-7.99790730	0.62589861	-0.01366111	0	0.00413082	0	-9.14450622	0	0	0.02477544	-0.00000000
27.59000000	35.06699488	615.49340475	80.74331062	0.95035889	0	-0.67542537	-2.07847981	0.93999593	2.25810551	0.11402724	0	-0.03267184	0	-9.31598016	0	0	0.00459747	0.00000000
27.60000000	38.27104539	605.04580323	80.17463548	0.94436719	0	-0.67552382	-4.35473009	33.85812602	4.37559165	0.40059497	0	-0.11560226	0	-9.41335173	0	0	-0.07988249	0.00000000
27.61000000	41.44327584	592.52562114	79.57063433	0.93858958	0	-0.67564974	-9.02546988	106.72733723	5.27223717	0.79489133	0	-0.23028904	0	-9.43899727	0	0	-0.25242614	0.00000000
27.62000000	44.39003008	577.03770259	78.86803463	0.93318006	0	-0.67577999	-21.00298415	223.54725411	3.33524468	1.08850604	0	-0.31724976	0	-9.46305290	0	0	0.07372977	-0.00000000
27.63000000	46.96038897	556.83052061	77.63602214	0.92801124	0	-0.67590587	-38.86388600	366.58491922	-5.57923923	1.21807614	0	-0.35678826	0	-9.49400615	0	0	0.80055463	0.00000000
27.64000000	48.92287577	529.81933762	75.23373773	0.92294122	0	-0.67594721	-56.79591991	499.32548615	-20.94940431	1.24397982	0	-0.36476939	0	-9.41199232	0	0	1.06020858	0
27.65000000	49.86341000	494.60088642	70.94522448	0.91786377	0	-0.67570345	-69.97071574	587.41558092	-36.10392784	1.22995403	0	-0.35967326	0	-8.99061862	0	0	0.81830056	0
27.66000000	49.18743838	451.65034911	64.35592998	0.91290130	0	-0.67507196	-76.76592543	620.75856882	-48.28327132	1.21054281	0	-0.35207040	0	-8.07753449	0	0	0.77933303	-0.00000000
